<svg id="visual" viewBox="0 0 900 600" width="900" height="600" xmlns="http://www.w3.org/2000/svg" xmlns:xlink="http://www.w3.org/1999/xlink" version="1.1"><g stroke-width="1" stroke-linejoin="bevel"><path d="M431 357L387 230L377.5 340Z" fill="#955dc8" stroke="#955dc8"></path><path d="M387 230L360.5 256L377.5 340Z" fill="#b46cf8" stroke="#b46cf8"></path><path d="M431 357L505 273L387 230Z" fill="#684785" stroke="#684785"></path><path d="M387 230L320.5 216L360.5 256Z" fill="#774e9b" stroke="#774e9b"></path><path d="M360.5 256L273 345L377.5 340Z" fill="#b46cf8" stroke="#b46cf8"></path><path d="M572.5 296L555.5 257L505 273Z" fill="#774e9b" stroke="#774e9b"></path><path d="M505 273L495 136L387 230Z" fill="#222222" stroke="#222222"></path><path d="M387 230L287.5 97L320.5 216Z" fill="#955dc8" stroke="#955dc8"></path><path d="M431 357L572.5 296L505 273Z" fill="#302934" stroke="#302934"></path><path d="M320.5 216L273 345L360.5 256Z" fill="#774e9b" stroke="#774e9b"></path><path d="M377.5 340L281.5 475L431 357Z" fill="#8656b1" stroke="#8656b1"></path><path d="M555.5 257L495 136L505 273Z" fill="#8656b1" stroke="#8656b1"></path><path d="M674 373L633 297L572.5 296Z" fill="#3d3147" stroke="#3d3147"></path><path d="M572.5 296L633 297L555.5 257Z" fill="#302934" stroke="#302934"></path><path d="M555.5 257L602.5 80L495 136Z" fill="#955dc8" stroke="#955dc8"></path><path d="M505 546L566.5 454L431 357Z" fill="#5a4070" stroke="#5a4070"></path><path d="M431 357L566.5 454L572.5 296Z" fill="#302934" stroke="#302934"></path><path d="M273 345L281.5 475L377.5 340Z" fill="#302934" stroke="#302934"></path><path d="M495 136L287.5 97L387 230Z" fill="#222222" stroke="#222222"></path><path d="M320.5 216L209 155L273 345Z" fill="#8656b1" stroke="#8656b1"></path><path d="M287.5 97L209 155L320.5 216Z" fill="#8656b1" stroke="#8656b1"></path><path d="M273 345L143.5 439L281.5 475Z" fill="#b46cf8" stroke="#b46cf8"></path><path d="M209 155L175 343L273 345Z" fill="#955dc8" stroke="#955dc8"></path><path d="M566.5 454L674 373L572.5 296Z" fill="#3d3147" stroke="#3d3147"></path><path d="M281.5 475L505 546L431 357Z" fill="#222222" stroke="#222222"></path><path d="M566.5 454L605.5 513L674 373Z" fill="#302934" stroke="#302934"></path><path d="M690 85L602.5 80L746.5 177Z" fill="#684785" stroke="#684785"></path><path d="M495 136L392.5 0L287.5 97Z" fill="#302934" stroke="#302934"></path><path d="M602.5 80L555.5 257L746.5 177Z" fill="#302934" stroke="#302934"></path><path d="M143.5 439L281 537L281.5 475Z" fill="#222222" stroke="#222222"></path><path d="M281.5 475L461 600L505 546Z" fill="#302934" stroke="#302934"></path><path d="M505 546L605.5 513L566.5 454Z" fill="#684785" stroke="#684785"></path><path d="M479 0L392.5 0L495 136Z" fill="#3d3147" stroke="#3d3147"></path><path d="M287.5 97L181 112L209 155Z" fill="#302934" stroke="#302934"></path><path d="M209 155L132.5 305L175 343Z" fill="#302934" stroke="#302934"></path><path d="M175 343L143.5 439L273 345Z" fill="#5a4070" stroke="#5a4070"></path><path d="M602.5 80L479 0L495 136Z" fill="#774e9b" stroke="#774e9b"></path><path d="M165 0L181 112L287.5 97Z" fill="#222222" stroke="#222222"></path><path d="M209 155L114.5 170L132.5 305Z" fill="#955dc8" stroke="#955dc8"></path><path d="M674 373L734 250L633 297Z" fill="#302934" stroke="#302934"></path><path d="M281 537L461 600L281.5 475Z" fill="#3d3147" stroke="#3d3147"></path><path d="M505 546L523.5 600L605.5 513Z" fill="#5a4070" stroke="#5a4070"></path><path d="M132.5 305L143.5 439L175 343Z" fill="#a465e0" stroke="#a465e0"></path><path d="M461 600L523.5 600L505 546Z" fill="#955dc8" stroke="#955dc8"></path><path d="M181 112L114.5 170L209 155Z" fill="#4b385b" stroke="#4b385b"></path><path d="M0 504L105.5 537L143.5 439Z" fill="#4b385b" stroke="#4b385b"></path><path d="M646 0L587.5 0L602.5 80Z" fill="#684785" stroke="#684785"></path><path d="M602.5 80L587.5 0L479 0Z" fill="#8656b1" stroke="#8656b1"></path><path d="M746.5 177L555.5 257L633 297Z" fill="#8656b1" stroke="#8656b1"></path><path d="M164 600L294.5 600L281 537Z" fill="#b46cf8" stroke="#b46cf8"></path><path d="M281 537L294.5 600L461 600Z" fill="#302934" stroke="#302934"></path><path d="M734 250L746.5 177L633 297Z" fill="#302934" stroke="#302934"></path><path d="M134.5 0L93.5 154L181 112Z" fill="#684785" stroke="#684785"></path><path d="M181 112L93.5 154L114.5 170Z" fill="#684785" stroke="#684785"></path><path d="M0 203L0 299L132.5 305Z" fill="#5a4070" stroke="#5a4070"></path><path d="M605.5 513L713 500L674 373Z" fill="#b46cf8" stroke="#b46cf8"></path><path d="M674 373L813.5 348L734 250Z" fill="#3d3147" stroke="#3d3147"></path><path d="M734 250L900 165L746.5 177Z" fill="#955dc8" stroke="#955dc8"></path><path d="M703 600L713 500L605.5 513Z" fill="#b46cf8" stroke="#b46cf8"></path><path d="M690 85L646 0L602.5 80Z" fill="#a465e0" stroke="#a465e0"></path><path d="M781.5 52L646 0L690 85Z" fill="#955dc8" stroke="#955dc8"></path><path d="M746.5 600L749.5 496L713 500Z" fill="#955dc8" stroke="#955dc8"></path><path d="M713 500L749.5 496L674 373Z" fill="#222222" stroke="#222222"></path><path d="M392.5 0L165 0L287.5 97Z" fill="#302934" stroke="#302934"></path><path d="M821.5 381L813.5 348L674 373Z" fill="#5a4070" stroke="#5a4070"></path><path d="M0 388L143.5 439L132.5 305Z" fill="#774e9b" stroke="#774e9b"></path><path d="M143.5 439L164 600L281 537Z" fill="#b46cf8" stroke="#b46cf8"></path><path d="M105.5 537L164 600L143.5 439Z" fill="#3d3147" stroke="#3d3147"></path><path d="M165 0L134.5 0L181 112Z" fill="#4b385b" stroke="#4b385b"></path><path d="M749.5 496L821.5 381L674 373Z" fill="#b46cf8" stroke="#b46cf8"></path><path d="M523.5 600L703 600L605.5 513Z" fill="#4b385b" stroke="#4b385b"></path><path d="M900 459L900 372L821.5 381Z" fill="#774e9b" stroke="#774e9b"></path><path d="M0 203L132.5 305L114.5 170Z" fill="#a465e0" stroke="#a465e0"></path><path d="M0 203L114.5 170L93.5 154Z" fill="#302934" stroke="#302934"></path><path d="M900 150L781.5 52L746.5 177Z" fill="#955dc8" stroke="#955dc8"></path><path d="M746.5 177L781.5 52L690 85Z" fill="#774e9b" stroke="#774e9b"></path><path d="M790.5 0L781.5 52L900 0Z" fill="#684785" stroke="#684785"></path><path d="M0 95L0 203L93.5 154Z" fill="#955dc8" stroke="#955dc8"></path><path d="M0 299L0 388L132.5 305Z" fill="#3d3147" stroke="#3d3147"></path><path d="M703 600L746.5 600L713 500Z" fill="#302934" stroke="#302934"></path><path d="M0 600L92.5 600L105.5 537Z" fill="#222222" stroke="#222222"></path><path d="M105.5 537L92.5 600L164 600Z" fill="#5a4070" stroke="#5a4070"></path><path d="M134.5 0L0 95L93.5 154Z" fill="#222222" stroke="#222222"></path><path d="M900 314L734 250L813.5 348Z" fill="#b46cf8" stroke="#b46cf8"></path><path d="M781.5 52L790.5 0L646 0Z" fill="#8656b1" stroke="#8656b1"></path><path d="M0 388L0 504L143.5 439Z" fill="#3d3147" stroke="#3d3147"></path><path d="M900 372L813.5 348L821.5 381Z" fill="#b46cf8" stroke="#b46cf8"></path><path d="M900 372L900 314L813.5 348Z" fill="#4b385b" stroke="#4b385b"></path><path d="M900 459L821.5 381L749.5 496Z" fill="#3d3147" stroke="#3d3147"></path><path d="M900 314L900 165L734 250Z" fill="#302934" stroke="#302934"></path><path d="M900 165L900 150L746.5 177Z" fill="#774e9b" stroke="#774e9b"></path><path d="M900 600L900 459L749.5 496Z" fill="#b46cf8" stroke="#b46cf8"></path><path d="M134.5 0L0 0L0 95Z" fill="#774e9b" stroke="#774e9b"></path><path d="M0 504L0 600L105.5 537Z" fill="#8656b1" stroke="#8656b1"></path><path d="M900 150L900 0L781.5 52Z" fill="#a465e0" stroke="#a465e0"></path><path d="M746.5 600L900 600L749.5 496Z" fill="#955dc8" stroke="#955dc8"></path></g></svg>