<svg width="894" height="580" viewBox="0 0 894 580" fill="none" xmlns="http://www.w3.org/2000/svg">
<g clip-path="url(#clip0_36_4791)">
<path d="M684.326 548.527L730.784 479.44L684.421 555.96L684.518 563.734C681.126 563.76 677.767 563.703 674.442 563.565L676.746 463.634L676.683 462.863L676.768 462.714L676.988 453.271L626.112 379.404L676.928 446.204L677.109 448.2L678.849 372.699L634.905 296.115L678.974 359.435L678.514 203.016L678.515 202.495L678.53 203.007L681.447 326.287L721.497 276.211L681.578 336.907L682.453 404.441L719.306 338.53L682.588 414.37L683.075 451.922L736.67 360.109L683.237 465.023L684.326 548.527Z" fill="#E6E6E6"/>
<path d="M840.675 550.704L887.133 481.616L840.77 558.136L840.867 565.91C837.476 565.936 834.117 565.88 830.791 565.741L833.096 465.81L833.032 465.039L833.117 464.89L833.338 455.448L782.461 381.581L833.278 448.38L833.458 450.376L835.199 374.875L791.255 298.292L835.324 361.611L834.864 205.192L834.865 204.671L834.88 205.183L837.797 328.463L877.846 278.387L837.928 339.083L838.802 406.617L875.656 340.707L838.938 416.546L839.424 454.099L893.02 362.286L839.587 467.199L840.675 550.704Z" fill="#E6E6E6"/>
<path d="M370.678 0H92.6699V376.039H370.678V0Z" fill="#E6E6E6"/>
<path d="M360.881 13.251H102.466V362.789H360.881V13.251Z" fill="white"/>
<path d="M326.915 74.5589H137.261C135.725 74.5569 134.252 73.9452 133.167 72.8582C132.081 71.7713 131.471 70.2978 131.471 68.7616C131.471 67.2254 132.081 65.752 133.167 64.665C134.252 63.578 135.725 62.9664 137.261 62.9644H326.915C327.677 62.9634 328.431 63.1126 329.136 63.4035C329.84 63.6944 330.48 64.1212 331.019 64.6596C331.558 65.1981 331.986 65.8375 332.278 66.5414C332.569 67.2452 332.72 67.9997 332.72 68.7616C332.72 69.5236 332.569 70.2781 332.278 70.9819C331.986 71.6858 331.558 72.3252 331.019 72.8636C330.48 73.402 329.84 73.8289 329.136 74.1198C328.431 74.4107 327.677 74.5599 326.915 74.5589Z" fill="#E6E6E6"/>
<path d="M326.915 134.188H137.261C135.725 134.186 134.252 133.574 133.167 132.487C132.081 131.4 131.471 129.927 131.471 128.391C131.471 126.854 132.081 125.381 133.167 124.294C134.252 123.207 135.725 122.595 137.261 122.593H326.915C327.677 122.592 328.431 122.741 329.136 123.032C329.84 123.323 330.48 123.75 331.019 124.289C331.558 124.827 331.986 125.466 332.278 126.17C332.569 126.874 332.72 127.629 332.72 128.391C332.72 129.152 332.569 129.907 332.278 130.611C331.986 131.315 331.558 131.954 331.019 132.493C330.48 133.031 329.84 133.458 329.136 133.749C328.431 134.04 327.677 134.189 326.915 134.188Z" fill="#E6E6E6"/>
<path d="M326.915 193.817H137.261C135.725 193.815 134.252 193.204 133.167 192.117C132.081 191.03 131.471 189.556 131.471 188.02C131.471 186.484 132.081 185.01 133.167 183.923C134.252 182.836 135.725 182.225 137.261 182.223H326.915C327.677 182.222 328.431 182.371 329.136 182.662C329.84 182.953 330.48 183.38 331.019 183.918C331.558 184.456 331.986 185.096 332.278 185.8C332.569 186.504 332.72 187.258 332.72 188.02C332.72 188.782 332.569 189.536 332.278 190.24C331.986 190.944 331.558 191.583 331.019 192.122C330.48 192.66 329.84 193.087 329.136 193.378C328.431 193.669 327.677 193.818 326.915 193.817Z" fill="#E6E6E6"/>
<path d="M326.915 253.446H137.261C135.725 253.444 134.252 252.832 133.167 251.745C132.081 250.658 131.471 249.185 131.471 247.649C131.471 246.113 132.081 244.639 133.167 243.552C134.252 242.465 135.725 241.854 137.261 241.852H326.915C327.677 241.851 328.431 242 329.136 242.291C329.84 242.582 330.48 243.008 331.019 243.547C331.558 244.085 331.986 244.725 332.278 245.429C332.569 246.132 332.72 246.887 332.72 247.649C332.72 248.411 332.569 249.165 332.278 249.869C331.986 250.573 331.558 251.212 331.019 251.751C330.48 252.289 329.84 252.716 329.136 253.007C328.431 253.298 327.677 253.447 326.915 253.446Z" fill="#E6E6E6"/>
<path d="M326.915 313.075H137.261C135.725 313.073 134.252 312.461 133.167 311.374C132.081 310.287 131.471 308.814 131.471 307.278C131.471 305.742 132.081 304.268 133.167 303.181C134.252 302.094 135.725 301.482 137.261 301.48H326.915C327.677 301.479 328.431 301.629 329.136 301.92C329.84 302.21 330.48 302.637 331.019 303.176C331.558 303.714 331.986 304.354 332.278 305.057C332.569 305.761 332.72 306.516 332.72 307.278C332.72 308.04 332.569 308.794 332.278 309.498C331.986 310.202 331.558 310.841 331.019 311.38C330.48 311.918 329.84 312.345 329.136 312.636C328.431 312.927 327.677 313.076 326.915 313.075Z" fill="#E6E6E6"/>
<path d="M293.788 74.5589H136.433C135.671 74.5599 134.916 74.4107 134.212 74.1198C133.508 73.8289 132.868 73.402 132.329 72.8636C131.79 72.3252 131.362 71.6858 131.07 70.9819C130.778 70.2781 130.628 69.5236 130.628 68.7616C130.628 67.9997 130.778 67.2452 131.07 66.5414C131.362 65.8375 131.79 65.1981 132.329 64.6596C132.868 64.1212 133.508 63.6944 134.212 63.4035C134.916 63.1126 135.671 62.9634 136.433 62.9644H293.788C295.324 62.9664 296.796 63.578 297.882 64.665C298.967 65.752 299.577 67.2254 299.577 68.7616C299.577 70.2978 298.967 71.7713 297.882 72.8582C296.796 73.9452 295.324 74.5569 293.788 74.5589Z" fill="#B46CF8"/>
<path d="M244.925 134.188H136.433C134.895 134.188 133.421 133.577 132.334 132.49C131.246 131.403 130.636 129.928 130.636 128.391C130.636 126.853 131.246 125.378 132.334 124.291C133.421 123.204 134.895 122.593 136.433 122.593H244.925C245.687 122.592 246.441 122.741 247.146 123.032C247.85 123.323 248.49 123.75 249.029 124.289C249.568 124.827 249.996 125.466 250.288 126.17C250.579 126.874 250.73 127.629 250.73 128.391C250.73 129.152 250.579 129.907 250.288 130.611C249.996 131.315 249.568 131.954 249.029 132.493C248.49 133.031 247.85 133.458 247.146 133.749C246.441 134.04 245.687 134.189 244.925 134.188Z" fill="#B46CF8"/>
<path d="M185.296 193.817H136.433C135.671 193.818 134.916 193.669 134.212 193.378C133.508 193.087 132.868 192.66 132.329 192.122C131.79 191.583 131.362 190.944 131.07 190.24C130.778 189.536 130.628 188.782 130.628 188.02C130.628 187.258 130.778 186.504 131.07 185.8C131.362 185.096 131.79 184.456 132.329 183.918C132.868 183.38 133.508 182.953 134.212 182.662C134.916 182.371 135.671 182.222 136.433 182.223H185.296C186.832 182.225 188.304 182.836 189.39 183.923C190.476 185.01 191.085 186.484 191.085 188.02C191.085 189.556 190.476 191.03 189.39 192.117C188.304 193.204 186.832 193.815 185.296 193.817Z" fill="#B46CF8"/>
<path d="M308.695 253.446H136.433C134.895 253.446 133.421 252.835 132.334 251.748C131.246 250.661 130.636 249.186 130.636 247.649C130.636 246.111 131.246 244.637 132.334 243.55C133.421 242.462 134.895 241.852 136.433 241.852H308.695C310.232 241.852 311.707 242.462 312.794 243.55C313.881 244.637 314.492 246.111 314.492 247.649C314.492 249.186 313.881 250.661 312.794 251.748C311.707 252.835 310.232 253.446 308.695 253.446Z" fill="#B46CF8"/>
<path d="M270.598 313.075H136.433C135.671 313.076 134.916 312.927 134.212 312.636C133.508 312.345 132.868 311.918 132.329 311.38C131.79 310.841 131.362 310.202 131.07 309.498C130.778 308.794 130.628 308.04 130.628 307.278C130.628 306.516 130.778 305.761 131.07 305.057C131.362 304.354 131.79 303.714 132.329 303.176C132.868 302.637 133.508 302.21 134.212 301.92C134.916 301.629 135.671 301.479 136.433 301.48H270.598C271.36 301.479 272.115 301.629 272.819 301.92C273.524 302.21 274.163 302.637 274.703 303.176C275.242 303.714 275.669 304.354 275.961 305.057C276.253 305.761 276.403 306.516 276.403 307.278C276.403 308.04 276.253 308.794 275.961 309.498C275.669 310.202 275.242 310.841 274.703 311.38C274.163 311.918 273.524 312.345 272.819 312.636C272.115 312.927 271.36 313.076 270.598 313.075Z" fill="#B46CF8"/>
<path d="M888.67 563.74H0.669922V565.74H888.67V563.74Z" fill="#3F3D56"/>
<path d="M506.658 270.907C506.658 270.907 500.372 224.814 489.897 237.385C479.421 249.956 489.897 268.812 489.897 268.812L498.277 279.288L506.658 273.002V270.907Z" fill="#FFB6B6"/>
<path d="M531.8 285.574C531.8 285.574 510.848 262.527 506.658 266.717C502.468 270.908 489.897 273.003 491.992 281.383C494.087 289.764 538.085 317.001 538.085 317.001L531.8 285.574Z" fill="#B46CF8"/>
<path opacity="0.1" d="M531.8 285.574C531.8 285.574 510.848 262.527 506.658 266.717C502.468 270.908 489.897 273.003 491.992 281.383C494.087 289.764 538.085 317.001 538.085 317.001L531.8 285.574Z" fill="black"/>
<path d="M651.224 283.479V300.24C651.224 300.24 653.319 337.953 640.748 335.857C628.177 333.762 634.462 302.335 634.462 302.335L636.558 283.479L651.224 283.479Z" fill="#FFB6B6"/>
<path d="M644.938 404.998C644.938 404.998 663.795 434.33 670.08 436.425C676.366 438.52 709.888 457.377 714.078 476.233L743.411 513.946L728.745 532.802C728.745 532.802 661.7 461.567 642.843 455.281C623.987 448.996 605.13 417.568 605.13 417.568L644.938 404.998Z" fill="#FFB6B6"/>
<path d="M496.182 356.809C496.182 356.809 456.374 363.095 462.659 388.236C468.945 413.378 529.705 465.757 529.705 465.757L531.8 478.328L554.847 482.519L565.322 472.043L563.227 465.757C563.227 465.757 538.085 442.711 535.99 434.33C533.895 425.949 510.848 392.427 500.372 390.332L515.038 381.951L496.182 356.809Z" fill="#FFB6B6"/>
<path d="M737.125 513.946C737.125 513.946 728.745 501.375 741.316 503.47C753.886 505.565 762.267 507.66 762.267 516.041C762.267 524.422 751.791 583.086 739.22 578.896C726.649 574.706 737.125 555.849 737.125 555.849C737.125 555.849 730.84 539.088 726.649 536.993C722.459 534.898 722.459 524.422 726.649 524.422C730.84 524.422 739.22 518.136 737.125 513.946Z" fill="#2F2E41"/>
<path d="M559.037 467.852C559.037 467.852 559.037 457.377 567.417 467.852C575.798 478.328 579.988 486.709 571.608 492.994C563.227 499.28 533.895 513.946 533.895 513.946C533.895 513.946 502.468 520.231 506.658 505.565C506.658 505.565 527.609 495.09 527.609 486.709C527.609 478.328 527.609 463.662 533.895 467.852C540.18 472.043 559.037 474.138 559.037 467.852Z" fill="#2F2E41"/>
<path d="M598.845 310.715C598.845 310.715 628.177 314.906 626.082 356.809C626.082 356.809 663.795 394.522 653.319 407.093C642.843 419.664 619.796 442.71 611.416 436.425C603.035 430.139 577.893 381.951 577.893 381.951C577.893 381.951 519.229 402.902 508.753 392.427C498.277 381.951 487.801 356.809 487.801 356.809L540.18 329.572L598.845 310.715Z" fill="#2F2E41"/>
<path d="M517.134 191.291C531.019 191.291 542.276 180.035 542.276 166.149C542.276 152.264 531.019 141.007 517.134 141.007C503.248 141.007 491.992 152.264 491.992 166.149C491.992 180.035 503.248 191.291 517.134 191.291Z" fill="#FFB6B6"/>
<path d="M535.99 168.245C535.99 168.245 550.656 191.291 554.846 193.387C559.037 195.482 525.514 216.433 525.514 216.433C525.514 216.433 525.514 189.196 515.038 182.911L535.99 168.245Z" fill="#FFB6B6"/>
<path d="M538.085 191.291C538.085 191.291 571.608 180.816 577.893 197.577C584.179 214.338 598.845 245.765 596.75 266.717C594.655 287.669 590.464 283.478 596.75 289.764C603.035 296.049 607.225 291.859 605.13 300.24C603.035 308.62 600.94 308.62 603.035 312.811C605.13 317.001 577.893 331.667 554.846 333.762L531.8 335.857C531.8 335.857 531.8 298.144 527.609 289.764C523.419 281.383 515.038 264.622 515.038 258.336V241.706C515.038 230.636 517.927 219.759 523.419 210.148C523.419 210.148 535.99 191.291 538.085 191.291Z" fill="#B46CF8"/>
<path d="M563.227 199.672C563.227 199.672 640.748 205.957 649.129 226.909C657.509 247.861 661.7 289.764 653.319 289.764C644.938 289.764 634.462 293.954 632.367 289.764C630.272 285.573 621.892 243.67 619.796 243.67C617.701 243.67 554.846 237.385 554.846 237.385C554.846 237.385 527.609 203.862 563.227 199.672Z" fill="#B46CF8"/>
<path d="M516.123 159.916C516.123 159.916 509.452 148.322 501.112 158.393C492.772 168.464 479.205 149.956 481.287 146.007C483.37 142.058 490.725 146.185 503.33 142.065C515.934 137.944 540.214 129.55 544.281 156.932C548.347 184.314 538.662 181.443 538.662 181.443C538.662 181.443 534.223 157.18 530.211 164.149L526.199 171.119L522.719 171.975L516.123 159.916Z" fill="#2F2E41"/>
</g>
<defs>
<clipPath id="clip0_36_4791">
<rect width="892.35" height="579.11" fill="white" transform="translate(0.669922)"/>
</clipPath>
</defs>
</svg>
