<svg width="732" height="669" viewBox="0 0 732 669" fill="none" xmlns="http://www.w3.org/2000/svg">
<g clip-path="url(#clip0_36_4789)">
<path d="M421.36 228.72C421.36 228.72 421.06 241.72 397.31 260.71L391.93 270.36L442.12 299.33C446.64 299.54 451.72 300.73 456.78 302.98C469.9 308.81 477.91 319.46 474.66 326.78C471.41 334.1 458.14 335.31 445.01 329.48C442.14 328.21 439.51 326.7 437.2 325.05C420 320.74 343.47 300.13 351.94 276.67C361.47 250.27 370.8 219.4 370.8 219.4L421.37 228.72H421.36Z" fill="#FFB6B6"/>
<path d="M379.71 181.09C382.72 171.17 389.96 163.24 399.57 159.33C409.18 155.43 419.89 156.07 428.98 161.07C437.79 165.93 443.99 174.37 445.99 184.22C447.99 194.08 445.57 204.26 439.36 212.17L418.42 238.81L365.59 227.59L379.71 181.09Z" fill="#B46CF8"/>
<path d="M488.72 279.68C473.47 274.23 457.49 271.55 440.83 271.39C439.09 271.09 437.43 272.26 437.13 274L435.32 284.44C435.02 286.18 436.19 287.84 437.93 288.14C444.43 292 451.04 294.34 457.74 295.65L450.8 335.75C443 334.23 435.84 333.87 429.75 335.44C428.01 335.14 426.35 336.31 426.05 338.05L424.24 348.49C423.94 350.23 425.11 351.89 426.85 352.19C440.43 357.08 456.96 359.35 474.73 360.48C476.47 360.78 478.13 359.61 478.43 357.87L480.24 347.43C480.54 345.69 479.37 344.03 477.63 343.73C470.77 341.24 464.04 338.98 457.63 337.31L464.67 296.67C471.66 297.35 478.72 297.1 485.82 296.43C487.56 296.73 489.22 295.56 489.52 293.82L491.33 283.38C491.63 281.64 490.46 279.98 488.72 279.68Z" fill="#2F2E41"/>
<path d="M275.53 624.75L228.73 576.89L262.55 528.57L271.72 529.17C276.59 529.49 280.8 525.81 281.14 520.94L282.86 496.22C283.22 491.1 279.16 486.74 274.02 486.74H188.06C188.76 485.07 188.94 483.2 188.53 481.39L137.25 254.43C136.26 250.05 132.15 247.1 127.68 247.57L107.42 249.7C102.15 250.26 98.54 255.29 99.7 260.46L154.64 504.56C155.88 510.06 161.56 512.63 166.27 510.96C166.01 511.69 165.86 512.42 165.8 513.16L158.51 513.74L34.51 651.74H72.51L168.51 544.74L260.51 651.74H290.51L291.51 633.74L275.51 624.74H275.53V624.75ZM185.58 523.53L235.91 526.83L216.2 564.07L187.54 534.76L185.59 523.53H185.58Z" fill="#F2F2F2"/>
<path d="M0 652.04C0 652.7 0.53 653.23 1.19 653.23H730.48C731.14 653.23 731.67 652.7 731.67 652.04C731.67 651.38 731.14 650.85 730.48 650.85H1.19C0.53 650.85 0 651.38 0 652.04Z" fill="#3F3D56"/>
<path d="M435.75 104.04C458.394 104.04 476.75 85.6837 476.75 63.04C476.75 40.3964 458.394 22.04 435.75 22.04C413.106 22.04 394.75 40.3964 394.75 63.04C394.75 85.6837 413.106 104.04 435.75 104.04Z" fill="#FFB6B6"/>
<path d="M357.53 585.75V626.75L326.53 627.75L327.82 585.75H357.53Z" fill="#FFB6B6"/>
<path d="M348.44 621.52L348.33 621.69L348.13 621.73C347.38 621.9 329.75 625.72 324.61 618.53C324.2 617.96 323.85 617.73 323.55 617.82C320.19 618.9 317.52 644.52 317.52 654.24C317.52 659.97 330.3 661.45 346.49 663.31C354.05 664.18 362.62 665.17 371.11 666.74C389.57 670.16 404.78 661.7 412.21 656.35C413.52 655.4 414.33 653.93 414.42 652.32C414.51 650.7 413.87 649.14 412.66 648.05C402.87 639.23 370.48 610.31 364.89 608.72C364.49 608.61 364.08 608.55 363.66 608.55C357.17 608.55 348.53 621.38 348.44 621.51V621.52Z" fill="#2F2E41"/>
<path d="M415.53 585.75V626.75L384.53 627.75L385.82 585.75H415.53Z" fill="#FFB6B6"/>
<path d="M428.03 292.25L444.53 304.75L447.53 445.75L419.53 599.75L383.03 601.25L382.03 454.25L335.03 320.25L344.53 288.75L428.03 292.25Z" fill="#2F2E41"/>
<path d="M351.03 316.25L335.03 320.25L323.53 599.75L365.03 596.25L392.53 398.75L351.03 316.25Z" fill="#2F2E41"/>
<path d="M428.94 667.74C420.48 666.17 411.93 665.19 404.39 664.32C387.06 662.32 374.54 660.87 374.54 654.25C374.54 649.23 376.48 618.41 381.26 616.88C381.79 616.71 382.59 616.77 383.44 617.96C387.92 624.23 403.79 621.2 405.73 620.8C406.93 619.04 416.23 605.78 423.17 607.77C428.52 609.3 455.02 632.65 470.35 646.43C472.05 647.96 472.94 650.15 472.79 652.43C472.64 654.69 471.49 656.73 469.62 658.01C463.45 662.25 451.89 668.54 437.66 668.54C434.85 668.54 431.93 668.29 428.94 667.74Z" fill="#2F2E41"/>
<path d="M390.9 114.14L399.86 84.05L438.85 93.93L437.27 126.59L390.9 114.14Z" fill="#FFB6B6"/>
<path d="M344.44 289.24L344 289.16L350.87 180.78C352.29 158.39 360.4 137.26 374.32 119.68L391.4 98.1101L445.77 128.32L445.98 128.43L458.02 192.66L458.04 192.78L445.01 304.9L444.88 305.33L344.44 289.25V289.24Z" fill="#B46CF8"/>
<path d="M400.21 84.98L403.72 85.79C403.72 85.79 409.77 62.14 413.75 67.05C417.74 71.96 427.92 73.46 427.92 73.46L431.42 65.73C431.42 65.73 450.38 64.99 453.52 56.33C453.52 56.33 493.79 58.25 482.51 36.85C471.24 15.45 467.62 20.02 467.62 20.02C467.62 20.02 456.61 13.48 454.14 6.93002C451.67 0.380019 427.38 -5.32998 413.06 8.52002C360.6 59.29 400.2 84.97 400.2 84.97L400.21 84.98Z" fill="#3F3D56"/>
<path d="M495.379 237.846L488.493 239.1L496.375 282.388L503.262 281.134L495.379 237.846Z" fill="#3F3D56"/>
<path d="M476.35 288.58C487.11 281.18 504.97 279.95 524.16 279.88C525.9 279.56 527.57 280.72 527.88 282.46L529.78 292.89C530.1 294.63 528.94 296.3 527.2 296.61C510.12 301.67 493.83 305.23 479.39 305.31C477.65 305.63 475.98 304.47 475.67 302.73L473.77 292.3C473.45 290.56 474.61 288.89 476.35 288.58Z" fill="#3F3D56"/>
<path d="M464.71 224.64C480.4 219.06 496.33 216.07 512.52 215.94C514.26 215.62 515.93 216.78 516.24 218.52L518.14 228.95C518.46 230.69 517.3 232.36 515.56 232.67C500.78 239.74 485.41 244.67 467.75 241.37C466.01 241.69 464.34 240.53 464.03 238.79L462.13 228.36C461.81 226.62 462.97 224.95 464.71 224.64Z" fill="#3F3D56"/>
<path d="M431.73 191.28C431.73 191.28 435.92 203.58 420.17 229.6L418.44 240.51L475.53 250.42C479.85 249.06 485.03 248.43 490.55 248.8C504.88 249.75 516.06 257 515.53 264.99C515 272.98 502.95 278.69 488.63 277.74C485.5 277.53 482.51 277.02 479.77 276.27C462.13 278.15 383.19 285.15 383.06 260.21C382.92 232.14 381.05 199.94 381.05 199.94L431.73 191.28Z" fill="#FFB6B6"/>
<path d="M376.23 160.91C375.64 150.56 379.71 140.62 387.38 133.65C395.05 126.68 405.33 123.59 415.59 125.16C425.53 126.69 434.26 132.48 439.53 141.04C444.8 149.6 446.04 160 442.93 169.57L432.45 201.79L378.99 209.44L376.24 160.92L376.23 160.91Z" fill="#B46CF8"/>
<path d="M157.79 587.445L155.963 631.407L162.957 631.698L164.784 587.736L157.79 587.445Z" fill="#3F3D56"/>
<path d="M135.07 633C147.19 628.14 164.88 630.87 183.63 635.01C185.39 635.08 186.77 636.58 186.7 638.34L186.26 648.93C186.19 650.69 184.69 652.07 182.93 652C165.15 653.18 148.48 653.08 134.37 649.99C132.61 649.92 131.23 648.42 131.3 646.66L131.74 636.07C131.81 634.31 133.31 632.93 135.07 633Z" fill="#3F3D56"/>
<path d="M137.77 568.06C154.3 566.06 170.5 566.65 186.33 570.07C188.09 570.14 189.47 571.64 189.4 573.4L188.96 583.99C188.89 585.75 187.39 587.13 185.63 587.06C169.66 590.71 153.58 592.14 137.07 585.05C135.31 584.98 133.93 583.48 134 581.72L134.44 571.13C134.51 569.37 136.01 567.99 137.77 568.06Z" fill="#3F3D56"/>
</g>
<defs>
<clipPath id="clip0_36_4789">
<rect width="731.67" height="668.54" fill="white"/>
</clipPath>
</defs>
</svg>
